{
  "accessors": [
    {
      "bufferView": 2,
      "componentType": 5126,
      "count": 3352,
      "max": [
        0.6809700131416321,
        2.3268914222717285,
        0.6809699535369873
      ],
      "min": [
        -0.6809698939323425,
        -1.7557384967803955,
        -0.6809699535369873
      ],
      "type": "VEC3"
    },
    {
      "bufferView": 2,
      "byteOffset": 40224,
      "componentType": 5126,
      "count": 3352,
      "max": [
        0.9999806880950928,
        0.9840604066848755,
        0.9999806880950928
      ],
      "min": [
        -0.9999806880950928,
        -0.8329501748085022,
        -0.9999806880950928
      ],
      "type": "VEC3"
    },
    {
      "bufferView": 1,
      "componentType": 5126,
      "count": 3352,
      "max": [
        1.0,
        1.000000238418579
      ],
      "min": [
        0.0,
        0.01000000536441803
      ],
      "type": "VEC2"
    },
    {
      "bufferView": 0,
      "componentType": 5125,
      "count": 16884,
      "type": "SCALAR"
    },
    {
      "bufferView": 2,
      "byteOffset": 80448,
      "componentType": 5126,
      "count": 516,
      "max": [
        0.3245280385017395,
        1.2087265253067017,
        0.3245280981063843
      ],
      "min": [
        -0.32452815771102905,
        0.8854271173477173,
        -0.3245280981063843
      ],
      "type": "VEC3"
    },
    {
      "bufferView": 2,
      "byteOffset": 86640,
      "componentType": 5126,
      "count": 516,
      "max": [
        0.9999806880950928,
        0.10939773917198181,
        0.9999806880950928
      ],
      "min": [
        -0.9999806880950928,
        -0.12731130421161652,
        -0.9999806880950928
      ],
      "type": "VEC3"
    },
    {
      "bufferView": 1,
      "byteOffset": 26816,
      "componentType": 5126,
      "count": 516,
      "max": [
        1.0,
        1.0000001192092896
      ],
      "min": [
        0.0,
        0.9999998211860657
      ],
      "type": "VEC2"
    },
    {
      "bufferView": 0,
      "byteOffset": 67536,
      "componentType": 5125,
      "count": 1536,
      "type": "SCALAR"
    }
  ],
  "asset": {
    "extras": {
      "author": "Vltava (https://sketchfab.com/jaydynvo)",
      "license": "CC-BY-4.0 (http://creativecommons.org/licenses/by/4.0/)",
      "source": "https://sketchfab.com/3d-models/bowling-pin-3b18f6c9e6554c6caf60e4710839c32b",
      "title": "Bowling Pin"
    },
    "generator": "Sketchfab-15.30.0",
    "version": "2.0"
  },
  "bufferViews": [
    {
      "buffer": 0,
      "byteLength": 73680,
      "name": "floatBufferViews",
      "target": 34963
    },
    {
      "buffer": 0,
      "byteLength": 30944,
      "byteOffset": 73680,
      "byteStride": 8,
      "name": "floatBufferViews",
      "target": 34962
    },
    {
      "buffer": 0,
      "byteLength": 92832,
      "byteOffset": 104624,
      "byteStride": 12,
      "name": "floatBufferViews",
      "target": 34962
    }
  ],
  "buffers": [
    {
      "byteLength": 197456,
      "uri": "scene.bin"
    }
  ],
  "materials": [
    {
      "doubleSided": true,
      "name": "Material.001",
      "pbrMetallicRoughness": {
        "baseColorFactor": [
          0.8,
          0.8,
          0.8,
          1.0
        ],
        "metallicFactor": 0.0,
        "roughnessFactor": 0.5
      }
    },
    {
      "doubleSided": true,
      "name": "Material.002",
      "pbrMetallicRoughness": {
        "baseColorFactor": [
          0.8,
          0.0928404,
          0.0822235,
          1.0
        ],
        "metallicFactor": 0.0,
        "roughnessFactor": 0.5
      }
    }
  ],
  "meshes": [
    {
      "name": "Object_0",
      "primitives": [
        {
          "attributes": {
            "NORMAL": 1,
            "POSITION": 0,
            "TEXCOORD_0": 2
          },
          "indices": 3,
          "material": 0,
          "mode": 4
        }
      ]
    },
    {
      "name": "Object_1",
      "primitives": [
        {
          "attributes": {
            "NORMAL": 5,
            "POSITION": 4,
            "TEXCOORD_0": 6
          },
          "indices": 7,
          "material": 1,
          "mode": 4
        }
      ]
    }
  ],
  "nodes": [
    {
      "children": [
        1
      ],
      "matrix": [
        1.0,
        0.0,
        0.0,
        0.0,
        0.0,
        2.220446049250313e-16,
        -1.0,
        0.0,
        0.0,
        1.0,
        2.220446049250313e-16,
        0.0,
        0.0,
        0.0,
        0.0,
        1.0
      ],
      "name": "Sketchfab_model"
    },
    {
      "children": [
        2
      ],
      "name": "root"
    },
    {
      "children": [
        3
      ],
      "matrix": [
        1.0,
        0.0,
        0.0,
        0.0,
        0.0,
        2.220446049250313e-16,
        1.0,
        0.0,
        0.0,
        -1.0,
        2.220446049250313e-16,
        0.0,
        0.0,
        0.0,
        0.0,
        1.0
      ],
      "name": "GLTF_SceneRootNode"
    },
    {
      "children": [
        4,
        5
      ],
      "name": "Cylinder_2"
    },
    {
      "mesh": 0,
      "name": "Object_4"
    },
    {
      "mesh": 1,
      "name": "Object_5"
    }
  ],
  "scene": 0,
  "scenes": [
    {
      "name": "Sketchfab_Scene",
      "nodes": [
        0
      ]
    }
  ]
}
